<svg width="61" height="24" viewBox="0 0 61 24" fill="none" xmlns="http://www.w3.org/2000/svg">
<path d="M10.33 16.5928H4.0293" stroke="#8E8FA5" stroke-width="1.5" stroke-linecap="round" stroke-linejoin="round"/>
<path d="M13.1406 6.90042H19.4413" stroke="#8E8FA5" stroke-width="1.5" stroke-linecap="round" stroke-linejoin="round"/>
<path fill-rule="evenodd" clip-rule="evenodd" d="M8.72629 6.84625C8.72629 5.5506 7.66813 4.5 6.36314 4.5C5.05816 4.5 4 5.5506 4 6.84625C4 8.14191 5.05816 9.19251 6.36314 9.19251C7.66813 9.19251 8.72629 8.14191 8.72629 6.84625Z" stroke="#8E8FA5" stroke-width="1.5" stroke-linecap="round" stroke-linejoin="round"/>
<path fill-rule="evenodd" clip-rule="evenodd" d="M20.0002 16.5538C20.0002 15.2581 18.9429 14.2075 17.6379 14.2075C16.3321 14.2075 15.2739 15.2581 15.2739 16.5538C15.2739 17.8494 16.3321 18.9 17.6379 18.9C18.9429 18.9 20.0002 17.8494 20.0002 16.5538Z" stroke="#8E8FA5" stroke-width="1.5" stroke-linecap="round" stroke-linejoin="round"/>
<path fill-rule="evenodd" clip-rule="evenodd" d="M40 6.5C40 3.87479 40.0281 3 43.5 3C46.9719 3 47 3.87479 47 6.5C47 9.12521 47.0111 10 43.5 10C39.9889 10 40 9.12521 40 6.5Z" stroke="#8E8FA5" stroke-width="1.5" stroke-linecap="round" stroke-linejoin="round"/>
<path fill-rule="evenodd" clip-rule="evenodd" d="M51 6.5C51 3.87479 51.0281 3 54.5 3C57.9719 3 58 3.87479 58 6.5C58 9.12521 58.0111 10 54.5 10C50.9889 10 51 9.12521 51 6.5Z" stroke="#8E8FA5" stroke-width="1.5" stroke-linecap="round" stroke-linejoin="round"/>
<path fill-rule="evenodd" clip-rule="evenodd" d="M40 17.5C40 14.8748 40.0281 14 43.5 14C46.9719 14 47 14.8748 47 17.5C47 20.1252 47.0111 21 43.5 21C39.9889 21 40 20.1252 40 17.5Z" stroke="#8E8FA5" stroke-width="1.5" stroke-linecap="round" stroke-linejoin="round"/>
<path fill-rule="evenodd" clip-rule="evenodd" d="M51 17.5C51 14.8748 51.0281 14 54.5 14C57.9719 14 58 14.8748 58 17.5C58 20.1252 58.0111 21 54.5 21C50.9889 21 51 20.1252 51 17.5Z" stroke="#8E8FA5" stroke-width="1.5" stroke-linecap="round" stroke-linejoin="round"/>
</svg>
