<svg width="16" height="16" viewBox="0 0 16 16" fill="none" xmlns="http://www.w3.org/2000/svg">
<path d="M8.10667 7.24668C8.04 7.24001 7.96 7.24001 7.88667 7.24668C6.3 7.19334 5.04 5.89334 5.04 4.29334C5.04 2.66001 6.36 1.33334 8 1.33334C9.63333 1.33334 10.96 2.66001 10.96 4.29334C10.9533 5.89334 9.69333 7.19334 8.10667 7.24668Z" stroke="#0D154B" stroke-width="1.3" stroke-linecap="round" stroke-linejoin="round"/>
<path d="M4.77333 9.70666C3.16 10.7867 3.16 12.5467 4.77333 13.62C6.60667 14.8467 9.61333 14.8467 11.4467 13.62C13.06 12.54 13.06 10.78 11.4467 9.70666C9.62 8.48666 6.61333 8.48666 4.77333 9.70666Z" stroke="#0D154B" stroke-width="1.3" stroke-linecap="round" stroke-linejoin="round"/>
</svg>
